G75*
G70*
%OFA0B0*%
%FSLAX24Y24*%
%IPPOS*%
%LPD*%
%AMOC8*
5,1,8,0,0,1.08239X$1,22.5*
%
%ADD10R,0.0160X0.0240*%
%ADD11C,0.0050*%
%ADD12R,0.1084X0.1143*%
%ADD13R,0.0513X0.0474*%
%ADD14C,0.0740*%
%ADD15R,0.0530X0.0245*%
%ADD16C,0.1340*%
%ADD17C,0.0440*%
D10*
X004559Y005197D03*
X006252Y005178D03*
X006233Y006910D03*
X004540Y006910D03*
D11*
X004334Y007134D02*
X004997Y007134D01*
X004997Y007086D02*
X004284Y007086D01*
X004315Y007117D02*
X004105Y006911D01*
X004106Y006435D01*
X004556Y006433D01*
X004687Y006563D01*
X004804Y006677D01*
X004998Y006857D01*
X004995Y007345D01*
X004559Y007346D01*
X004315Y007117D01*
X004385Y007183D02*
X004996Y007183D01*
X004996Y007231D02*
X004437Y007231D01*
X004488Y007280D02*
X004996Y007280D01*
X004995Y007328D02*
X004540Y007328D01*
X004234Y007037D02*
X004997Y007037D01*
X004998Y006989D02*
X004184Y006989D01*
X004135Y006940D02*
X004998Y006940D01*
X004998Y006892D02*
X004105Y006892D01*
X004105Y006843D02*
X004983Y006843D01*
X004931Y006795D02*
X004105Y006795D01*
X004105Y006746D02*
X004878Y006746D01*
X004826Y006698D02*
X004105Y006698D01*
X004106Y006649D02*
X004775Y006649D01*
X004725Y006601D02*
X004106Y006601D01*
X004106Y006552D02*
X004675Y006552D01*
X004627Y006504D02*
X004106Y006504D01*
X004106Y006455D02*
X004578Y006455D01*
X005792Y006890D02*
X006022Y006646D01*
X006228Y006435D01*
X006704Y006437D01*
X006706Y006887D01*
X006575Y007017D01*
X006462Y007134D01*
X005793Y007134D01*
X005793Y007086D02*
X006509Y007086D01*
X006462Y007134D02*
X006281Y007329D01*
X005793Y007326D01*
X005792Y006890D01*
X005792Y006892D02*
X006701Y006892D01*
X006705Y006843D02*
X005837Y006843D01*
X005882Y006795D02*
X006705Y006795D01*
X006705Y006746D02*
X005928Y006746D01*
X005974Y006698D02*
X006705Y006698D01*
X006705Y006649D02*
X006019Y006649D01*
X006067Y006601D02*
X006705Y006601D01*
X006704Y006552D02*
X006114Y006552D01*
X006161Y006504D02*
X006704Y006504D01*
X006704Y006455D02*
X006209Y006455D01*
X005792Y006940D02*
X006652Y006940D01*
X006604Y006989D02*
X005792Y006989D01*
X005793Y007037D02*
X006556Y007037D01*
X006417Y007183D02*
X005793Y007183D01*
X005793Y007231D02*
X006372Y007231D01*
X006327Y007280D02*
X005793Y007280D01*
X006111Y007328D02*
X006283Y007328D01*
X006268Y005650D02*
X006024Y005420D01*
X005813Y005214D01*
X005815Y004738D01*
X006265Y004736D01*
X006395Y004867D01*
X006512Y004980D01*
X006707Y005160D01*
X006704Y005648D01*
X006268Y005650D01*
X006248Y005631D02*
X006704Y005631D01*
X006704Y005582D02*
X006196Y005582D01*
X006145Y005534D02*
X006705Y005534D01*
X006705Y005485D02*
X006093Y005485D01*
X006042Y005437D02*
X006705Y005437D01*
X006706Y005388D02*
X005992Y005388D01*
X005942Y005340D02*
X006706Y005340D01*
X006706Y005291D02*
X005892Y005291D01*
X005843Y005243D02*
X006707Y005243D01*
X006707Y005194D02*
X005813Y005194D01*
X005814Y005146D02*
X006691Y005146D01*
X006639Y005097D02*
X005814Y005097D01*
X005814Y005049D02*
X006586Y005049D01*
X006534Y005000D02*
X005814Y005000D01*
X005814Y004952D02*
X006483Y004952D01*
X006433Y004903D02*
X005814Y004903D01*
X005815Y004855D02*
X006383Y004855D01*
X006335Y004806D02*
X005815Y004806D01*
X005815Y004758D02*
X006286Y004758D01*
X005019Y004760D02*
X005020Y005210D01*
X004890Y005340D01*
X004777Y005457D01*
X004596Y005652D01*
X004108Y005649D01*
X004107Y005213D01*
X004337Y004969D01*
X004543Y004758D01*
X005019Y004760D01*
X005019Y004806D02*
X004496Y004806D01*
X004449Y004855D02*
X005019Y004855D01*
X005019Y004903D02*
X004401Y004903D01*
X004354Y004952D02*
X005020Y004952D01*
X005020Y005000D02*
X004308Y005000D01*
X004262Y005049D02*
X005020Y005049D01*
X005020Y005097D02*
X004216Y005097D01*
X004171Y005146D02*
X005020Y005146D01*
X005020Y005194D02*
X004125Y005194D01*
X004107Y005243D02*
X004988Y005243D01*
X004939Y005291D02*
X004107Y005291D01*
X004107Y005340D02*
X004891Y005340D01*
X004844Y005388D02*
X004108Y005388D01*
X004108Y005437D02*
X004797Y005437D01*
X004751Y005485D02*
X004108Y005485D01*
X004108Y005534D02*
X004706Y005534D01*
X004661Y005582D02*
X004108Y005582D01*
X004108Y005631D02*
X004616Y005631D01*
D12*
X005506Y003474D03*
X008006Y003474D03*
X012900Y003150D03*
X015400Y003150D03*
X015400Y005150D03*
X012900Y005150D03*
X012900Y007150D03*
X015400Y007150D03*
D13*
X011161Y006984D03*
X010491Y006984D03*
X009671Y006984D03*
X009001Y006984D03*
X007891Y006956D03*
X007221Y006956D03*
X007221Y006054D03*
X007891Y006054D03*
X007891Y005147D03*
X007221Y005147D03*
X013815Y001650D03*
X014485Y001650D03*
D14*
X012650Y001650D03*
X011650Y001650D03*
X010650Y001650D03*
X009650Y001650D03*
X008650Y001650D03*
X007650Y001650D03*
X007650Y008650D03*
X008650Y008650D03*
X009650Y008650D03*
X010650Y008650D03*
X011650Y008650D03*
X012650Y008650D03*
D15*
X011254Y006019D03*
X011254Y005769D03*
X011254Y005519D03*
X011254Y005269D03*
X011254Y005019D03*
X011254Y004769D03*
X011254Y004519D03*
X011254Y004269D03*
X009155Y004269D03*
X009155Y004519D03*
X009155Y004769D03*
X009155Y005019D03*
X009155Y005269D03*
X009155Y005519D03*
X009155Y005769D03*
X009155Y006019D03*
D16*
X002150Y005150D03*
X018150Y005150D03*
D17*
X016150Y005150D03*
X016150Y007150D03*
X011246Y006384D03*
X009146Y006394D03*
X006656Y007294D03*
X009136Y003874D03*
X008806Y003484D03*
X011246Y003864D03*
X015140Y001650D03*
X016150Y003150D03*
M02*
