G75*
G70*
%OFA0B0*%
%FSLAX24Y24*%
%IPPOS*%
%LPD*%
%AMOC8*
5,1,8,0,0,1.08239X$1,22.5*
%
%ADD10R,0.0080X0.0160*%
%ADD11R,0.0443X0.0473*%
%ADD12R,0.0473X0.0443*%
%ADD13C,0.0050*%
%ADD14R,0.1004X0.1063*%
%ADD15R,0.0433X0.0394*%
%ADD16C,0.0660*%
%ADD17R,0.0450X0.0165*%
%ADD18C,0.0160*%
%ADD19C,0.0100*%
%ADD20C,0.0360*%
D10*
X004559Y005197D03*
X006252Y005178D03*
X006233Y006910D03*
X004540Y006910D03*
D11*
X004775Y007108D03*
X004327Y006673D03*
X006484Y005412D03*
X006036Y004976D03*
D12*
X004781Y004981D03*
X004345Y005429D03*
X006466Y006658D03*
X006030Y007106D03*
D13*
X006265Y007134D02*
X006423Y007134D01*
X006426Y007130D02*
X006262Y007302D01*
X006270Y006885D01*
X005820Y006894D01*
X006038Y006670D01*
X006236Y006463D01*
X006231Y006874D01*
X006678Y006871D01*
X006552Y007002D01*
X006426Y007130D01*
X006470Y007086D02*
X006266Y007086D01*
X006267Y007037D02*
X006517Y007037D01*
X006564Y006989D02*
X006268Y006989D01*
X006269Y006940D02*
X006611Y006940D01*
X006658Y006892D02*
X006270Y006892D01*
X006232Y006843D02*
X005869Y006843D01*
X005822Y006892D02*
X005947Y006892D01*
X005916Y006795D02*
X006232Y006795D01*
X006233Y006746D02*
X005964Y006746D01*
X006011Y006698D02*
X006233Y006698D01*
X006234Y006649D02*
X006058Y006649D01*
X006104Y006601D02*
X006234Y006601D01*
X006235Y006552D02*
X006151Y006552D01*
X006197Y006504D02*
X006235Y006504D01*
X004971Y006877D02*
X004800Y006712D01*
X004671Y006587D01*
X004541Y006461D01*
X004543Y006907D01*
X004132Y006903D01*
X004339Y007101D01*
X004563Y007319D01*
X004554Y006869D01*
X004971Y006877D01*
X004936Y006843D02*
X004543Y006843D01*
X004543Y006795D02*
X004885Y006795D01*
X004835Y006746D02*
X004542Y006746D01*
X004542Y006698D02*
X004785Y006698D01*
X004735Y006649D02*
X004542Y006649D01*
X004541Y006601D02*
X004685Y006601D01*
X004635Y006552D02*
X004541Y006552D01*
X004541Y006504D02*
X004585Y006504D01*
X004555Y006892D02*
X004543Y006892D01*
X004556Y006940D02*
X004171Y006940D01*
X004222Y006989D02*
X004557Y006989D01*
X004558Y007037D02*
X004272Y007037D01*
X004323Y007086D02*
X004559Y007086D01*
X004560Y007134D02*
X004373Y007134D01*
X004423Y007183D02*
X004561Y007183D01*
X004562Y007231D02*
X004473Y007231D01*
X004523Y007280D02*
X004563Y007280D01*
X006262Y007280D02*
X006283Y007280D01*
X006263Y007231D02*
X006330Y007231D01*
X006376Y007183D02*
X006264Y007183D01*
X006272Y005622D02*
X006048Y005404D01*
X005841Y005206D01*
X006252Y005210D01*
X006249Y004764D01*
X006380Y004890D01*
X006508Y005015D01*
X006680Y005180D01*
X006263Y005172D01*
X006272Y005622D01*
X006271Y005582D02*
X006231Y005582D01*
X006270Y005534D02*
X006181Y005534D01*
X006131Y005485D02*
X006269Y005485D01*
X006268Y005437D02*
X006081Y005437D01*
X006031Y005388D02*
X006267Y005388D01*
X006266Y005340D02*
X005980Y005340D01*
X005930Y005291D02*
X006265Y005291D01*
X006264Y005243D02*
X005879Y005243D01*
X006252Y005194D02*
X006263Y005194D01*
X006252Y005146D02*
X006644Y005146D01*
X006593Y005097D02*
X006251Y005097D01*
X006251Y005049D02*
X006543Y005049D01*
X006493Y005000D02*
X006251Y005000D01*
X006250Y004952D02*
X006443Y004952D01*
X006393Y004903D02*
X006250Y004903D01*
X006250Y004855D02*
X006343Y004855D01*
X006293Y004806D02*
X006249Y004806D01*
X004993Y005194D02*
X004867Y005324D01*
X004741Y005453D01*
X004577Y005624D01*
X004585Y005208D01*
X004135Y005217D01*
X004353Y004993D01*
X004551Y004786D01*
X004546Y005197D01*
X004993Y005194D01*
X004946Y005243D02*
X004584Y005243D01*
X004583Y005291D02*
X004899Y005291D01*
X004852Y005340D02*
X004582Y005340D01*
X004581Y005388D02*
X004805Y005388D01*
X004758Y005437D02*
X004580Y005437D01*
X004579Y005485D02*
X004711Y005485D01*
X004664Y005534D02*
X004578Y005534D01*
X004578Y005582D02*
X004617Y005582D01*
X004546Y005194D02*
X004157Y005194D01*
X004204Y005146D02*
X004547Y005146D01*
X004548Y005097D02*
X004251Y005097D01*
X004298Y005049D02*
X004548Y005049D01*
X004549Y005000D02*
X004345Y005000D01*
X004392Y004952D02*
X004549Y004952D01*
X004550Y004903D02*
X004439Y004903D01*
X004485Y004855D02*
X004550Y004855D01*
X004551Y004806D02*
X004531Y004806D01*
D14*
X005506Y003474D03*
X008006Y003474D03*
X012900Y003150D03*
X015400Y003150D03*
X015400Y005150D03*
X012900Y005150D03*
X012900Y007150D03*
X015400Y007150D03*
D15*
X011161Y006984D03*
X010491Y006984D03*
X009671Y006984D03*
X009001Y006984D03*
X007891Y006956D03*
X007221Y006956D03*
X007221Y006054D03*
X007891Y006054D03*
X007891Y005147D03*
X007221Y005147D03*
X013815Y001650D03*
X014485Y001650D03*
D16*
X012650Y001650D03*
X011650Y001650D03*
X010650Y001650D03*
X009650Y001650D03*
X008650Y001650D03*
X007650Y001650D03*
X007650Y008650D03*
X008650Y008650D03*
X009650Y008650D03*
X010650Y008650D03*
X011650Y008650D03*
X012650Y008650D03*
D17*
X011254Y006019D03*
X011254Y005769D03*
X011254Y005519D03*
X011254Y005269D03*
X011254Y005019D03*
X011254Y004769D03*
X011254Y004519D03*
X011254Y004269D03*
X009155Y004269D03*
X009155Y004519D03*
X009155Y004769D03*
X009155Y005019D03*
X009155Y005269D03*
X009155Y005519D03*
X009155Y005769D03*
X009155Y006019D03*
D18*
X005506Y003474D02*
X004406Y003484D01*
X004406Y005024D01*
X004559Y005177D01*
X004559Y005197D01*
X005346Y006044D02*
X004706Y006684D01*
X004706Y006744D01*
X005356Y006054D02*
X007221Y006054D01*
X007221Y006956D01*
X006656Y007294D02*
X006272Y006910D01*
X007221Y006054D02*
X007221Y005147D01*
X007891Y005147D02*
X007891Y006054D01*
X009155Y006019D02*
X009155Y005769D01*
X009155Y006019D02*
X009155Y006363D01*
X009146Y006394D02*
X009216Y006464D01*
X009546Y006464D01*
X009671Y006588D01*
X009671Y006984D01*
X010491Y006984D02*
X010491Y006568D01*
X010596Y006464D01*
X011116Y006464D01*
X011246Y006384D01*
X011254Y006326D02*
X011254Y006019D01*
X011746Y005274D02*
X011896Y005394D01*
X011896Y007714D01*
X011576Y007984D01*
X010786Y007984D01*
X010646Y008104D01*
X010650Y008650D01*
X012650Y008650D02*
X012646Y007334D01*
X012900Y007150D01*
X012606Y007194D02*
X012196Y006784D01*
X012196Y005174D01*
X012041Y005019D01*
X011254Y005019D01*
X011254Y004769D02*
X012741Y004769D01*
X012900Y005150D02*
X013036Y002994D01*
X012570Y002890D02*
X012540Y002860D01*
X011620Y001940D01*
X011620Y001650D01*
X010650Y001650D01*
X007650Y001650D02*
X005546Y003404D01*
X008006Y003474D02*
X008806Y003484D01*
X009136Y003874D02*
X009155Y003965D01*
X009155Y004269D01*
X011254Y004269D02*
X011254Y003952D01*
X011246Y003864D01*
X011254Y005269D02*
X011259Y005274D01*
X011746Y005274D01*
X015410Y005130D02*
X015430Y005150D01*
X016150Y005150D01*
X016150Y007150D02*
X015400Y007150D01*
X015400Y003150D02*
X016150Y003150D01*
X015140Y001650D02*
X014485Y001650D01*
D19*
X013815Y001650D02*
X012650Y001650D01*
X011650Y001650D02*
X011620Y001650D01*
X012920Y002664D02*
X012920Y002854D01*
X012900Y003150D01*
X012550Y002850D01*
X012540Y002860D01*
X012556Y002894D02*
X012900Y003150D01*
X013036Y002994D01*
X011254Y004519D02*
X011239Y004504D01*
X010796Y004504D01*
X009781Y005519D01*
X009155Y005519D01*
X008911Y005519D01*
X008736Y005694D01*
X008736Y006734D01*
X008961Y006959D01*
X009001Y006984D01*
X008550Y006850D02*
X008450Y006950D01*
X008450Y007450D01*
X007650Y008250D01*
X007650Y008650D01*
X008650Y008650D02*
X008650Y007550D01*
X009750Y007550D01*
X010050Y007250D01*
X010050Y006750D01*
X010250Y006550D01*
X010250Y006450D01*
X010450Y006250D01*
X010450Y005750D01*
X011250Y005750D01*
X011254Y005769D01*
X011561Y005519D02*
X011656Y005614D01*
X011656Y006844D01*
X011626Y006874D01*
X011271Y006874D01*
X011161Y006984D01*
X011150Y006950D01*
X011050Y006950D01*
X011050Y007450D01*
X010750Y007750D01*
X009650Y007750D01*
X009650Y008650D01*
X012606Y007194D02*
X012900Y007150D01*
X011246Y006384D02*
X011254Y006326D01*
X011254Y005519D02*
X011561Y005519D01*
X012900Y005150D02*
X012741Y004769D01*
X015400Y005150D02*
X015430Y005150D01*
X009155Y005269D02*
X009150Y005250D01*
X008750Y005250D01*
X008550Y005450D01*
X008550Y006850D01*
X008356Y006744D02*
X008250Y006806D01*
X007891Y006956D01*
X008356Y006744D02*
X008356Y005214D01*
X008736Y005034D01*
X009140Y005034D01*
X009155Y005019D01*
X009155Y004769D02*
X009150Y004764D01*
X008426Y004764D01*
X008121Y005094D01*
X008131Y005084D01*
X007891Y005147D01*
X006926Y004524D02*
X009150Y004524D01*
X009155Y004519D01*
X008836Y003564D02*
X008806Y003484D01*
X006926Y004524D02*
X006398Y005052D01*
X006378Y005052D01*
X006252Y005178D01*
X005346Y006044D02*
X005356Y006054D01*
X004706Y006744D02*
X004540Y006910D01*
X006233Y006910D02*
X006272Y006910D01*
X009146Y006394D02*
X009155Y006363D01*
X005506Y003474D02*
X005546Y003404D01*
D20*
X008806Y003484D03*
X009136Y003874D03*
X011246Y003864D03*
X015140Y001650D03*
X016150Y003150D03*
X016150Y005150D03*
X016150Y007150D03*
X011246Y006384D03*
X009146Y006394D03*
X006656Y007294D03*
M02*
