%
M48
M72
T01C0.0200
T02C0.0394
T03C0.1260
%
T01
X8806Y3484
X9136Y3874
X11246Y3864
X15140Y1650
X16150Y3150
X16150Y5150
X16150Y7150
X11246Y6384
X9146Y6394
X6656Y7294
T02
X7650Y1650
X8650Y1650
X9650Y1650
X10650Y1650
X11650Y1650
X12650Y1650
X12650Y8650
X11650Y8650
X10650Y8650
X9650Y8650
X8650Y8650
X7650Y8650
T03
X2150Y5150
X18150Y5150
M30
