G75*
G70*
%OFA0B0*%
%FSLAX24Y24*%
%IPPOS*%
%LPD*%
%AMOC8*
5,1,8,0,0,1.08239X$1,22.5*
%
%ADD10R,0.0080X0.0160*%
%ADD11R,0.0443X0.0473*%
%ADD12R,0.0473X0.0443*%
%ADD13C,0.0050*%
%ADD14R,0.1004X0.1063*%
%ADD15R,0.0433X0.0394*%
%ADD16R,0.0450X0.0165*%
D10*
X004559Y005197D03*
X006252Y005178D03*
X006233Y006910D03*
X004540Y006910D03*
D11*
X004775Y007112D03*
X004327Y006677D03*
X006484Y005416D03*
X006036Y004980D03*
D12*
X004777Y004981D03*
X004341Y005429D03*
X006462Y006658D03*
X006026Y007106D03*
D13*
X006261Y007134D02*
X006419Y007134D01*
X006422Y007130D02*
X006258Y007302D01*
X006266Y006885D01*
X005816Y006894D01*
X006034Y006670D01*
X006232Y006463D01*
X006228Y006874D01*
X006674Y006871D01*
X006548Y007002D01*
X006422Y007130D01*
X006466Y007086D02*
X006262Y007086D01*
X006263Y007037D02*
X006513Y007037D01*
X006560Y006989D02*
X006264Y006989D01*
X006265Y006940D02*
X006607Y006940D01*
X006654Y006892D02*
X006266Y006892D01*
X006228Y006843D02*
X005865Y006843D01*
X005818Y006892D02*
X005943Y006892D01*
X005913Y006795D02*
X006228Y006795D01*
X006229Y006746D02*
X005960Y006746D01*
X006007Y006698D02*
X006229Y006698D01*
X006230Y006649D02*
X006054Y006649D01*
X006100Y006601D02*
X006230Y006601D01*
X006231Y006552D02*
X006147Y006552D01*
X006193Y006504D02*
X006231Y006504D01*
X004971Y006881D02*
X004800Y006716D01*
X004671Y006591D01*
X004541Y006465D01*
X004543Y006911D01*
X004132Y006907D01*
X004339Y007105D01*
X004563Y007323D01*
X004554Y006873D01*
X004971Y006881D01*
X004932Y006843D02*
X004543Y006843D01*
X004543Y006795D02*
X004881Y006795D01*
X004831Y006746D02*
X004542Y006746D01*
X004542Y006698D02*
X004780Y006698D01*
X004731Y006649D02*
X004542Y006649D01*
X004541Y006601D02*
X004681Y006601D01*
X004631Y006552D02*
X004541Y006552D01*
X004541Y006504D02*
X004581Y006504D01*
X004555Y006892D02*
X004543Y006892D01*
X004556Y006940D02*
X004167Y006940D01*
X004218Y006989D02*
X004557Y006989D01*
X004558Y007037D02*
X004268Y007037D01*
X004319Y007086D02*
X004559Y007086D01*
X004560Y007134D02*
X004369Y007134D01*
X004419Y007183D02*
X004561Y007183D01*
X004562Y007231D02*
X004469Y007231D01*
X004519Y007280D02*
X004563Y007280D01*
X006258Y007280D02*
X006279Y007280D01*
X006259Y007231D02*
X006326Y007231D01*
X006372Y007183D02*
X006260Y007183D01*
X006272Y005626D02*
X006048Y005408D01*
X005841Y005210D01*
X006252Y005214D01*
X006249Y004768D01*
X006380Y004894D01*
X006508Y005019D01*
X006680Y005184D01*
X006263Y005176D01*
X006272Y005626D01*
X006271Y005582D02*
X006227Y005582D01*
X006270Y005534D02*
X006177Y005534D01*
X006127Y005485D02*
X006269Y005485D01*
X006268Y005437D02*
X006077Y005437D01*
X006027Y005388D02*
X006267Y005388D01*
X006266Y005340D02*
X005976Y005340D01*
X005926Y005291D02*
X006265Y005291D01*
X006264Y005243D02*
X005875Y005243D01*
X006252Y005194D02*
X006263Y005194D01*
X006252Y005146D02*
X006640Y005146D01*
X006589Y005097D02*
X006251Y005097D01*
X006251Y005049D02*
X006539Y005049D01*
X006488Y005000D02*
X006251Y005000D01*
X006250Y004952D02*
X006439Y004952D01*
X006389Y004903D02*
X006250Y004903D01*
X006250Y004855D02*
X006339Y004855D01*
X006289Y004806D02*
X006249Y004806D01*
X004989Y005194D02*
X004863Y005324D01*
X004737Y005453D01*
X004573Y005624D01*
X004581Y005208D01*
X004131Y005217D01*
X004349Y004993D01*
X004547Y004786D01*
X004543Y005197D01*
X004989Y005194D01*
X004942Y005243D02*
X004580Y005243D01*
X004579Y005291D02*
X004895Y005291D01*
X004848Y005340D02*
X004578Y005340D01*
X004577Y005388D02*
X004801Y005388D01*
X004754Y005437D02*
X004576Y005437D01*
X004575Y005485D02*
X004707Y005485D01*
X004660Y005534D02*
X004575Y005534D01*
X004574Y005582D02*
X004614Y005582D01*
X004543Y005194D02*
X004153Y005194D01*
X004200Y005146D02*
X004543Y005146D01*
X004544Y005097D02*
X004247Y005097D01*
X004294Y005049D02*
X004544Y005049D01*
X004545Y005000D02*
X004342Y005000D01*
X004388Y004952D02*
X004545Y004952D01*
X004546Y004903D02*
X004435Y004903D01*
X004481Y004855D02*
X004546Y004855D01*
X004547Y004806D02*
X004527Y004806D01*
D14*
X005506Y003474D03*
X008006Y003474D03*
X012900Y003150D03*
X015400Y003150D03*
X015400Y005150D03*
X012900Y005150D03*
X012900Y007150D03*
X015400Y007150D03*
D15*
X011161Y006984D03*
X010491Y006984D03*
X009671Y006984D03*
X009001Y006984D03*
X007891Y006956D03*
X007221Y006956D03*
X007221Y006054D03*
X007891Y006054D03*
X007891Y005147D03*
X007221Y005147D03*
X013815Y001650D03*
X014485Y001650D03*
D16*
X011254Y004269D03*
X011254Y004519D03*
X011254Y004769D03*
X011254Y005019D03*
X011254Y005269D03*
X011254Y005519D03*
X011254Y005769D03*
X011254Y006019D03*
X009155Y006019D03*
X009155Y005769D03*
X009155Y005519D03*
X009155Y005269D03*
X009155Y005019D03*
X009155Y004769D03*
X009155Y004519D03*
X009155Y004269D03*
M02*
