G75*
G70*
%OFA0B0*%
%FSLAX24Y24*%
%IPPOS*%
%LPD*%
%AMOC8*
5,1,8,0,0,1.08239X$1,22.5*
%
%ADD10C,0.0660*%
%ADD11C,0.0100*%
%ADD12C,0.0160*%
%ADD13C,0.0120*%
%ADD14C,0.0360*%
D10*
X007650Y001650D03*
X008650Y001650D03*
X009650Y001650D03*
X010650Y001650D03*
X011650Y001650D03*
X012650Y001650D03*
X012650Y008650D03*
X011650Y008650D03*
X010650Y008650D03*
X009650Y008650D03*
X008650Y008650D03*
X007650Y008650D03*
D11*
X000600Y004640D02*
X000600Y000600D01*
X019700Y000600D01*
X019700Y004608D01*
X019513Y004221D01*
X019513Y004221D01*
X019179Y003860D01*
X019179Y003860D01*
X018753Y003614D01*
X018753Y003614D01*
X018273Y003505D01*
X018273Y003505D01*
X017783Y003541D01*
X017783Y003541D01*
X017325Y003721D01*
X017325Y003721D01*
X016940Y004028D01*
X016940Y004028D01*
X016940Y004028D01*
X016663Y004434D01*
X016663Y004434D01*
X016518Y004904D01*
X016518Y005396D01*
X016663Y005866D01*
X016663Y005866D01*
X016940Y006272D01*
X016940Y006272D01*
X016940Y006272D01*
X017325Y006579D01*
X017325Y006579D01*
X017783Y006759D01*
X017783Y006759D01*
X018273Y006795D01*
X018273Y006795D01*
X018753Y006686D01*
X018753Y006686D01*
X019179Y006440D01*
X019179Y006440D01*
X019513Y006079D01*
X019513Y006079D01*
X019700Y005692D01*
X019700Y009700D01*
X000600Y009700D01*
X000600Y005660D01*
X000663Y005866D01*
X000940Y006272D01*
X000940Y006272D01*
X001325Y006579D01*
X001325Y006579D01*
X001783Y006759D01*
X001783Y006759D01*
X002273Y006795D01*
X002273Y006795D01*
X002753Y006686D01*
X002753Y006686D01*
X003179Y006440D01*
X003179Y006440D01*
X003513Y006079D01*
X003513Y006079D01*
X003727Y005636D01*
X003727Y005636D01*
X003800Y005150D01*
X003727Y004664D01*
X003727Y004664D01*
X003513Y004221D01*
X003513Y004221D01*
X003179Y003860D01*
X003179Y003860D01*
X002753Y003614D01*
X002753Y003614D01*
X002273Y003505D01*
X002273Y003505D01*
X001783Y003541D01*
X001783Y003541D01*
X001325Y003721D01*
X001325Y003721D01*
X000940Y004028D01*
X000940Y004028D01*
X000940Y004028D01*
X000663Y004434D01*
X000600Y004640D01*
X000600Y004583D02*
X000618Y004583D01*
X000600Y004484D02*
X000648Y004484D01*
X000600Y004386D02*
X000697Y004386D01*
X000764Y004287D02*
X000600Y004287D01*
X000600Y004189D02*
X000831Y004189D01*
X000898Y004090D02*
X000600Y004090D01*
X000600Y003992D02*
X000986Y003992D01*
X001109Y003893D02*
X000600Y003893D01*
X000600Y003795D02*
X001233Y003795D01*
X001389Y003696D02*
X000600Y003696D01*
X000600Y003598D02*
X001640Y003598D01*
X002680Y003598D02*
X017640Y003598D01*
X017389Y003696D02*
X002895Y003696D01*
X003065Y003795D02*
X017233Y003795D01*
X017109Y003893D02*
X003209Y003893D01*
X003301Y003992D02*
X016986Y003992D01*
X016898Y004090D02*
X003392Y004090D01*
X003484Y004189D02*
X016831Y004189D01*
X016764Y004287D02*
X003545Y004287D01*
X003593Y004386D02*
X016697Y004386D01*
X016648Y004484D02*
X003640Y004484D01*
X003688Y004583D02*
X016618Y004583D01*
X016587Y004681D02*
X003729Y004681D01*
X003744Y004780D02*
X016557Y004780D01*
X016526Y004878D02*
X003759Y004878D01*
X003774Y004977D02*
X016518Y004977D01*
X016518Y005075D02*
X003789Y005075D01*
X003796Y005174D02*
X016518Y005174D01*
X016518Y005272D02*
X003782Y005272D01*
X003767Y005371D02*
X016518Y005371D01*
X016541Y005469D02*
X003752Y005469D01*
X003737Y005568D02*
X016571Y005568D01*
X016602Y005666D02*
X003712Y005666D01*
X003665Y005765D02*
X016632Y005765D01*
X016663Y005863D02*
X003618Y005863D01*
X003570Y005962D02*
X016729Y005962D01*
X016796Y006060D02*
X003523Y006060D01*
X003440Y006159D02*
X016863Y006159D01*
X016930Y006257D02*
X003349Y006257D01*
X003257Y006356D02*
X017045Y006356D01*
X017168Y006454D02*
X003155Y006454D01*
X002984Y006553D02*
X017292Y006553D01*
X017509Y006651D02*
X002813Y006651D01*
X002474Y006750D02*
X017760Y006750D01*
X018474Y006750D02*
X019700Y006750D01*
X019700Y006848D02*
X000600Y006848D01*
X000600Y006750D02*
X001760Y006750D01*
X001509Y006651D02*
X000600Y006651D01*
X000600Y006553D02*
X001292Y006553D01*
X001168Y006454D02*
X000600Y006454D01*
X000600Y006356D02*
X001045Y006356D01*
X000930Y006257D02*
X000600Y006257D01*
X000600Y006159D02*
X000863Y006159D01*
X000796Y006060D02*
X000600Y006060D01*
X000600Y005962D02*
X000729Y005962D01*
X000663Y005863D02*
X000600Y005863D01*
X000600Y005765D02*
X000632Y005765D01*
X000602Y005666D02*
X000600Y005666D01*
X000600Y006947D02*
X019700Y006947D01*
X019700Y007045D02*
X000600Y007045D01*
X000600Y007144D02*
X019700Y007144D01*
X019700Y007242D02*
X000600Y007242D01*
X000600Y007341D02*
X019700Y007341D01*
X019700Y007439D02*
X000600Y007439D01*
X000600Y007538D02*
X019700Y007538D01*
X019700Y007636D02*
X000600Y007636D01*
X000600Y007735D02*
X019700Y007735D01*
X019700Y007833D02*
X000600Y007833D01*
X000600Y007932D02*
X019700Y007932D01*
X019700Y008030D02*
X000600Y008030D01*
X000600Y008129D02*
X019700Y008129D01*
X019700Y008227D02*
X012831Y008227D01*
X012911Y008260D02*
X013040Y008389D01*
X013110Y008558D01*
X013110Y008741D01*
X013040Y008911D01*
X012911Y009040D01*
X012741Y009110D01*
X012558Y009110D01*
X012389Y009040D01*
X012260Y008911D01*
X012190Y008741D01*
X012190Y008558D01*
X012260Y008389D01*
X012389Y008260D01*
X012558Y008190D01*
X012741Y008190D01*
X012911Y008260D01*
X012976Y008326D02*
X019700Y008326D01*
X019700Y008424D02*
X013054Y008424D01*
X013095Y008523D02*
X019700Y008523D01*
X019700Y008621D02*
X013110Y008621D01*
X013110Y008720D02*
X019700Y008720D01*
X019700Y008818D02*
X013078Y008818D01*
X013034Y008917D02*
X019700Y008917D01*
X019700Y009015D02*
X012936Y009015D01*
X012364Y009015D02*
X011964Y009015D01*
X011963Y009016D02*
X011902Y009061D01*
X011834Y009095D01*
X011762Y009118D01*
X011698Y009128D01*
X011698Y008698D01*
X011602Y008698D01*
X011602Y008602D01*
X011172Y008602D01*
X011182Y008538D01*
X011205Y008466D01*
X011239Y008398D01*
X011284Y008337D01*
X011337Y008284D01*
X011398Y008239D01*
X011466Y008205D01*
X011538Y008182D01*
X011602Y008172D01*
X011602Y008602D01*
X011698Y008602D01*
X011698Y008698D01*
X012128Y008698D01*
X012118Y008762D01*
X012095Y008834D01*
X012061Y008902D01*
X012016Y008963D01*
X011963Y009016D01*
X012050Y008917D02*
X012266Y008917D01*
X012222Y008818D02*
X012100Y008818D01*
X012125Y008720D02*
X012190Y008720D01*
X012190Y008621D02*
X011698Y008621D01*
X011698Y008602D02*
X012128Y008602D01*
X012118Y008538D01*
X012095Y008466D01*
X012061Y008398D01*
X012016Y008337D01*
X011963Y008284D01*
X011902Y008239D01*
X011834Y008205D01*
X011762Y008182D01*
X011698Y008172D01*
X011698Y008602D01*
X011698Y008523D02*
X011602Y008523D01*
X011602Y008621D02*
X011110Y008621D01*
X011110Y008558D02*
X011040Y008389D01*
X010911Y008260D01*
X010741Y008190D01*
X010558Y008190D01*
X010389Y008260D01*
X010260Y008389D01*
X010190Y008558D01*
X010190Y008741D01*
X010260Y008911D01*
X010389Y009040D01*
X010558Y009110D01*
X010741Y009110D01*
X010911Y009040D01*
X011040Y008911D01*
X011110Y008741D01*
X011110Y008558D01*
X011095Y008523D02*
X011187Y008523D01*
X011226Y008424D02*
X011054Y008424D01*
X010976Y008326D02*
X011296Y008326D01*
X011423Y008227D02*
X010831Y008227D01*
X010469Y008227D02*
X009831Y008227D01*
X009911Y008260D02*
X010040Y008389D01*
X010110Y008558D01*
X010110Y008741D01*
X010040Y008911D01*
X009911Y009040D01*
X009741Y009110D01*
X009558Y009110D01*
X009389Y009040D01*
X009260Y008911D01*
X009190Y008741D01*
X009190Y008558D01*
X009260Y008389D01*
X009389Y008260D01*
X009558Y008190D01*
X009741Y008190D01*
X009911Y008260D01*
X009976Y008326D02*
X010324Y008326D01*
X010246Y008424D02*
X010054Y008424D01*
X010095Y008523D02*
X010205Y008523D01*
X010190Y008621D02*
X010110Y008621D01*
X010110Y008720D02*
X010190Y008720D01*
X010222Y008818D02*
X010078Y008818D01*
X010034Y008917D02*
X010266Y008917D01*
X010364Y009015D02*
X009936Y009015D01*
X009364Y009015D02*
X008936Y009015D01*
X008911Y009040D02*
X008741Y009110D01*
X008558Y009110D01*
X008389Y009040D01*
X008260Y008911D01*
X008190Y008741D01*
X008190Y008558D01*
X008260Y008389D01*
X008389Y008260D01*
X008558Y008190D01*
X008741Y008190D01*
X008911Y008260D01*
X009040Y008389D01*
X009110Y008558D01*
X009110Y008741D01*
X009040Y008911D01*
X008911Y009040D01*
X009034Y008917D02*
X009266Y008917D01*
X009222Y008818D02*
X009078Y008818D01*
X009110Y008720D02*
X009190Y008720D01*
X009190Y008621D02*
X009110Y008621D01*
X009095Y008523D02*
X009205Y008523D01*
X009246Y008424D02*
X009054Y008424D01*
X008976Y008326D02*
X009324Y008326D01*
X009469Y008227D02*
X008831Y008227D01*
X008469Y008227D02*
X007831Y008227D01*
X007911Y008260D02*
X007741Y008190D01*
X007558Y008190D01*
X007389Y008260D01*
X007260Y008389D01*
X007190Y008558D01*
X007190Y008741D01*
X007260Y008911D01*
X007389Y009040D01*
X007558Y009110D01*
X007741Y009110D01*
X007911Y009040D01*
X008040Y008911D01*
X008110Y008741D01*
X008110Y008558D01*
X008040Y008389D01*
X007911Y008260D01*
X007976Y008326D02*
X008324Y008326D01*
X008246Y008424D02*
X008054Y008424D01*
X008095Y008523D02*
X008205Y008523D01*
X008190Y008621D02*
X008110Y008621D01*
X008110Y008720D02*
X008190Y008720D01*
X008222Y008818D02*
X008078Y008818D01*
X008034Y008917D02*
X008266Y008917D01*
X008364Y009015D02*
X007936Y009015D01*
X007364Y009015D02*
X000600Y009015D01*
X000600Y008917D02*
X007266Y008917D01*
X007222Y008818D02*
X000600Y008818D01*
X000600Y008720D02*
X007190Y008720D01*
X007190Y008621D02*
X000600Y008621D01*
X000600Y008523D02*
X007205Y008523D01*
X007246Y008424D02*
X000600Y008424D01*
X000600Y008326D02*
X007324Y008326D01*
X007469Y008227D02*
X000600Y008227D01*
X000600Y009114D02*
X011523Y009114D01*
X011538Y009118D02*
X011466Y009095D01*
X011398Y009061D01*
X011337Y009016D01*
X011284Y008963D01*
X011239Y008902D01*
X011205Y008834D01*
X011182Y008762D01*
X011172Y008698D01*
X011602Y008698D01*
X011602Y009128D01*
X011538Y009118D01*
X011602Y009114D02*
X011698Y009114D01*
X011777Y009114D02*
X019700Y009114D01*
X019700Y009212D02*
X000600Y009212D01*
X000600Y009311D02*
X019700Y009311D01*
X019700Y009409D02*
X000600Y009409D01*
X000600Y009508D02*
X019700Y009508D01*
X019700Y009606D02*
X000600Y009606D01*
X006656Y007444D02*
X006656Y007294D01*
X006656Y007444D02*
X006706Y007494D01*
X009146Y006394D02*
X009606Y006344D01*
X009906Y006044D01*
X010481Y003934D02*
X009936Y003389D01*
X009136Y003744D02*
X009136Y003874D01*
X009136Y003744D02*
X008806Y003484D01*
X010481Y003934D02*
X011246Y003864D01*
X011558Y002110D02*
X011389Y002040D01*
X011260Y001911D01*
X011190Y001741D01*
X011190Y001558D01*
X011260Y001389D01*
X011389Y001260D01*
X011558Y001190D01*
X011741Y001190D01*
X011911Y001260D01*
X012040Y001389D01*
X012110Y001558D01*
X012110Y001741D01*
X012040Y001911D01*
X011911Y002040D01*
X011741Y002110D01*
X011558Y002110D01*
X011371Y002022D02*
X010929Y002022D01*
X010911Y002040D02*
X010741Y002110D01*
X010558Y002110D01*
X010389Y002040D01*
X010260Y001911D01*
X010190Y001741D01*
X010190Y001558D01*
X010260Y001389D01*
X010389Y001260D01*
X010558Y001190D01*
X010741Y001190D01*
X010911Y001260D01*
X011040Y001389D01*
X011110Y001558D01*
X011110Y001741D01*
X011040Y001911D01*
X010911Y002040D01*
X011028Y001923D02*
X011272Y001923D01*
X011224Y001825D02*
X011076Y001825D01*
X011110Y001726D02*
X011190Y001726D01*
X011190Y001628D02*
X011110Y001628D01*
X011098Y001529D02*
X011202Y001529D01*
X011243Y001431D02*
X011057Y001431D01*
X010983Y001332D02*
X011317Y001332D01*
X011453Y001234D02*
X010847Y001234D01*
X010453Y001234D02*
X009890Y001234D01*
X009902Y001239D02*
X009963Y001284D01*
X010016Y001337D01*
X010061Y001398D01*
X010095Y001466D01*
X010118Y001538D01*
X010128Y001602D01*
X009698Y001602D01*
X009698Y001698D01*
X009602Y001698D01*
X009602Y001602D01*
X009172Y001602D01*
X009182Y001538D01*
X009205Y001466D01*
X009239Y001398D01*
X009284Y001337D01*
X009337Y001284D01*
X009398Y001239D01*
X009466Y001205D01*
X009538Y001182D01*
X009602Y001172D01*
X009602Y001602D01*
X009698Y001602D01*
X009698Y001172D01*
X009762Y001182D01*
X009834Y001205D01*
X009902Y001239D01*
X010011Y001332D02*
X010317Y001332D01*
X010243Y001431D02*
X010077Y001431D01*
X010115Y001529D02*
X010202Y001529D01*
X010190Y001628D02*
X009698Y001628D01*
X009698Y001698D02*
X010128Y001698D01*
X010118Y001762D01*
X010095Y001834D01*
X010061Y001902D01*
X010016Y001963D01*
X009963Y002016D01*
X009902Y002061D01*
X009834Y002095D01*
X009762Y002118D01*
X009698Y002128D01*
X009698Y001698D01*
X009698Y001726D02*
X009602Y001726D01*
X009602Y001698D02*
X009602Y002128D01*
X009538Y002118D01*
X009466Y002095D01*
X009398Y002061D01*
X009337Y002016D01*
X009284Y001963D01*
X009239Y001902D01*
X009205Y001834D01*
X009182Y001762D01*
X009172Y001698D01*
X009602Y001698D01*
X009602Y001628D02*
X008698Y001628D01*
X008698Y001602D02*
X008698Y001698D01*
X008602Y001698D01*
X008602Y001602D01*
X008172Y001602D01*
X008182Y001538D01*
X008205Y001466D01*
X008239Y001398D01*
X008284Y001337D01*
X008337Y001284D01*
X008398Y001239D01*
X008466Y001205D01*
X008538Y001182D01*
X008602Y001172D01*
X008602Y001602D01*
X008698Y001602D01*
X009128Y001602D01*
X009118Y001538D01*
X009095Y001466D01*
X009061Y001398D01*
X009016Y001337D01*
X008963Y001284D01*
X008902Y001239D01*
X008834Y001205D01*
X008762Y001182D01*
X008698Y001172D01*
X008698Y001602D01*
X008698Y001529D02*
X008602Y001529D01*
X008602Y001431D02*
X008698Y001431D01*
X008698Y001332D02*
X008602Y001332D01*
X008602Y001234D02*
X008698Y001234D01*
X008890Y001234D02*
X009410Y001234D01*
X009289Y001332D02*
X009011Y001332D01*
X009077Y001431D02*
X009223Y001431D01*
X009185Y001529D02*
X009115Y001529D01*
X009128Y001698D02*
X009118Y001762D01*
X009095Y001834D01*
X009061Y001902D01*
X009016Y001963D01*
X008963Y002016D01*
X008902Y002061D01*
X008834Y002095D01*
X008762Y002118D01*
X008698Y002128D01*
X008698Y001698D01*
X009128Y001698D01*
X009124Y001726D02*
X009176Y001726D01*
X009202Y001825D02*
X009098Y001825D01*
X009045Y001923D02*
X009255Y001923D01*
X009345Y002022D02*
X008955Y002022D01*
X008751Y002120D02*
X009549Y002120D01*
X009602Y002120D02*
X009698Y002120D01*
X009751Y002120D02*
X019700Y002120D01*
X019700Y002022D02*
X012929Y002022D01*
X012911Y002040D02*
X012741Y002110D01*
X012558Y002110D01*
X012389Y002040D01*
X012260Y001911D01*
X012190Y001741D01*
X012190Y001558D01*
X012260Y001389D01*
X012389Y001260D01*
X012558Y001190D01*
X012741Y001190D01*
X012911Y001260D01*
X013040Y001389D01*
X013110Y001558D01*
X013110Y001741D01*
X013040Y001911D01*
X012911Y002040D01*
X013028Y001923D02*
X019700Y001923D01*
X019700Y001825D02*
X013076Y001825D01*
X013110Y001726D02*
X019700Y001726D01*
X019700Y001628D02*
X013110Y001628D01*
X013098Y001529D02*
X019700Y001529D01*
X019700Y001431D02*
X013057Y001431D01*
X012983Y001332D02*
X019700Y001332D01*
X019700Y001234D02*
X012847Y001234D01*
X012453Y001234D02*
X011847Y001234D01*
X011983Y001332D02*
X012317Y001332D01*
X012243Y001431D02*
X012057Y001431D01*
X012098Y001529D02*
X012202Y001529D01*
X012190Y001628D02*
X012110Y001628D01*
X012110Y001726D02*
X012190Y001726D01*
X012224Y001825D02*
X012076Y001825D01*
X012028Y001923D02*
X012272Y001923D01*
X012371Y002022D02*
X011929Y002022D01*
X010371Y002022D02*
X009955Y002022D01*
X010045Y001923D02*
X010272Y001923D01*
X010224Y001825D02*
X010098Y001825D01*
X010124Y001726D02*
X010190Y001726D01*
X009698Y001825D02*
X009602Y001825D01*
X009602Y001923D02*
X009698Y001923D01*
X009698Y002022D02*
X009602Y002022D01*
X009602Y001529D02*
X009698Y001529D01*
X009698Y001431D02*
X009602Y001431D01*
X009602Y001332D02*
X009698Y001332D01*
X009698Y001234D02*
X009602Y001234D01*
X008698Y001726D02*
X008602Y001726D01*
X008602Y001698D02*
X008602Y002128D01*
X008538Y002118D01*
X008466Y002095D01*
X008398Y002061D01*
X008337Y002016D01*
X008284Y001963D01*
X008239Y001902D01*
X008205Y001834D01*
X008182Y001762D01*
X008172Y001698D01*
X008602Y001698D01*
X008602Y001628D02*
X008110Y001628D01*
X008110Y001558D02*
X008040Y001389D01*
X007911Y001260D01*
X007741Y001190D01*
X007558Y001190D01*
X007389Y001260D01*
X007260Y001389D01*
X007190Y001558D01*
X007190Y001741D01*
X007260Y001911D01*
X007389Y002040D01*
X007558Y002110D01*
X007741Y002110D01*
X007911Y002040D01*
X008040Y001911D01*
X008110Y001741D01*
X008110Y001558D01*
X008098Y001529D02*
X008185Y001529D01*
X008223Y001431D02*
X008057Y001431D01*
X007983Y001332D02*
X008289Y001332D01*
X008410Y001234D02*
X007847Y001234D01*
X007453Y001234D02*
X000600Y001234D01*
X000600Y001332D02*
X007317Y001332D01*
X007243Y001431D02*
X000600Y001431D01*
X000600Y001529D02*
X007202Y001529D01*
X007190Y001628D02*
X000600Y001628D01*
X000600Y001726D02*
X007190Y001726D01*
X007224Y001825D02*
X000600Y001825D01*
X000600Y001923D02*
X007272Y001923D01*
X007371Y002022D02*
X000600Y002022D01*
X000600Y002120D02*
X008549Y002120D01*
X008602Y002120D02*
X008698Y002120D01*
X008698Y002022D02*
X008602Y002022D01*
X008602Y001923D02*
X008698Y001923D01*
X008698Y001825D02*
X008602Y001825D01*
X008345Y002022D02*
X007929Y002022D01*
X008028Y001923D02*
X008255Y001923D01*
X008202Y001825D02*
X008076Y001825D01*
X008110Y001726D02*
X008176Y001726D01*
X000600Y002219D02*
X019700Y002219D01*
X019700Y002317D02*
X000600Y002317D01*
X000600Y002416D02*
X019700Y002416D01*
X019700Y002514D02*
X000600Y002514D01*
X000600Y002613D02*
X019700Y002613D01*
X019700Y002711D02*
X000600Y002711D01*
X000600Y002810D02*
X019700Y002810D01*
X019700Y002908D02*
X000600Y002908D01*
X000600Y003007D02*
X019700Y003007D01*
X019700Y003105D02*
X000600Y003105D01*
X000600Y003204D02*
X019700Y003204D01*
X019700Y003302D02*
X000600Y003302D01*
X000600Y003401D02*
X019700Y003401D01*
X019700Y003499D02*
X000600Y003499D01*
X000600Y001135D02*
X019700Y001135D01*
X019700Y001037D02*
X000600Y001037D01*
X000600Y000938D02*
X019700Y000938D01*
X019700Y000840D02*
X000600Y000840D01*
X000600Y000741D02*
X019700Y000741D01*
X019700Y000643D02*
X000600Y000643D01*
X011602Y008227D02*
X011698Y008227D01*
X011698Y008326D02*
X011602Y008326D01*
X011602Y008424D02*
X011698Y008424D01*
X011877Y008227D02*
X012469Y008227D01*
X012324Y008326D02*
X012004Y008326D01*
X012074Y008424D02*
X012246Y008424D01*
X012205Y008523D02*
X012113Y008523D01*
X011698Y008720D02*
X011602Y008720D01*
X011602Y008818D02*
X011698Y008818D01*
X011698Y008917D02*
X011602Y008917D01*
X011602Y009015D02*
X011698Y009015D01*
X011336Y009015D02*
X010936Y009015D01*
X011034Y008917D02*
X011250Y008917D01*
X011200Y008818D02*
X011078Y008818D01*
X011110Y008720D02*
X011175Y008720D01*
X018813Y006651D02*
X019700Y006651D01*
X019700Y006553D02*
X018984Y006553D01*
X019155Y006454D02*
X019700Y006454D01*
X019700Y006356D02*
X019257Y006356D01*
X019349Y006257D02*
X019700Y006257D01*
X019700Y006159D02*
X019440Y006159D01*
X019523Y006060D02*
X019700Y006060D01*
X019700Y005962D02*
X019570Y005962D01*
X019618Y005863D02*
X019700Y005863D01*
X019700Y005765D02*
X019665Y005765D01*
X019688Y004583D02*
X019700Y004583D01*
X019700Y004484D02*
X019640Y004484D01*
X019593Y004386D02*
X019700Y004386D01*
X019700Y004287D02*
X019545Y004287D01*
X019484Y004189D02*
X019700Y004189D01*
X019700Y004090D02*
X019392Y004090D01*
X019301Y003992D02*
X019700Y003992D01*
X019700Y003893D02*
X019209Y003893D01*
X019065Y003795D02*
X019700Y003795D01*
X019700Y003696D02*
X018895Y003696D01*
X018680Y003598D02*
X019700Y003598D01*
D12*
X016280Y002800D02*
X016270Y002790D01*
X016280Y002800D02*
X016150Y003150D01*
X015300Y001660D02*
X015140Y001650D01*
X015300Y001660D02*
X015320Y001640D01*
X009906Y003328D02*
X009891Y003344D01*
X008806Y003484D01*
X011116Y006334D02*
X010906Y006544D01*
X011116Y006334D02*
X011246Y006384D01*
X016150Y007150D02*
X016300Y005250D01*
X016150Y005150D01*
D13*
X009936Y003389D02*
X009891Y003344D01*
D14*
X009136Y003874D03*
X008806Y003484D03*
X011246Y003864D03*
X015140Y001650D03*
X016150Y003150D03*
X016150Y005150D03*
X016150Y007150D03*
X011246Y006384D03*
X009146Y006394D03*
X006656Y007294D03*
M02*
